<mxfile host="app.diagrams.net" modified="2022-09-03T09:03:51.396Z" agent="5.0 (Windows NT 10.0; Win64; x64) AppleWebKit/537.36 (KHTML, like Gecko) Chrome/104.0.0.0 Safari/537.36" etag="IsXUBMdST43xbF3dcwGh" version="20.2.8" type="github">
  <diagram id="GLV3ebVqTDoFod2DuKVN" name="Page-1">
    <mxGraphModel dx="1483" dy="1996" grid="1" gridSize="10" guides="1" tooltips="1" connect="1" arrows="1" fold="1" page="1" pageScale="1" pageWidth="827" pageHeight="1169" math="0" shadow="0">
      <root>
        <mxCell id="0" />
        <mxCell id="1" parent="0" />
        <mxCell id="EG9JKjOF7Zh3uiVdJYcR-1" value="" style="rounded=0;whiteSpace=wrap;html=1;" vertex="1" parent="1">
          <mxGeometry x="190" y="320" width="440" height="200" as="geometry" />
        </mxCell>
        <mxCell id="EG9JKjOF7Zh3uiVdJYcR-2" value="&lt;b&gt;React.js Front end&lt;/b&gt;" style="ellipse;whiteSpace=wrap;html=1;aspect=fixed;" vertex="1" parent="1">
          <mxGeometry x="370" y="100" width="80" height="80" as="geometry" />
        </mxCell>
        <mxCell id="EG9JKjOF7Zh3uiVdJYcR-5" value="Actor" style="shape=umlActor;verticalLabelPosition=bottom;verticalAlign=top;html=1;outlineConnect=0;" vertex="1" parent="1">
          <mxGeometry x="395" y="-20" width="30" height="60" as="geometry" />
        </mxCell>
        <mxCell id="EG9JKjOF7Zh3uiVdJYcR-7" value="" style="shape=doubleArrow;direction=south;whiteSpace=wrap;html=1;" vertex="1" parent="1">
          <mxGeometry x="384" y="530" width="60" height="185" as="geometry" />
        </mxCell>
        <mxCell id="EG9JKjOF7Zh3uiVdJYcR-8" value="MongoDB" style="shape=datastore;whiteSpace=wrap;html=1;" vertex="1" parent="1">
          <mxGeometry x="330" y="730" width="170" height="150" as="geometry" />
        </mxCell>
        <mxCell id="EG9JKjOF7Zh3uiVdJYcR-11" value="&lt;b&gt;&lt;i&gt;Uvicorn&lt;/i&gt;&lt;/b&gt;" style="ellipse;shape=doubleEllipse;whiteSpace=wrap;html=1;" vertex="1" parent="1">
          <mxGeometry x="360" y="480" width="100" height="30" as="geometry" />
        </mxCell>
        <mxCell id="EG9JKjOF7Zh3uiVdJYcR-12" value="" style="shape=singleArrow;direction=south;whiteSpace=wrap;html=1;" vertex="1" parent="1">
          <mxGeometry x="395" y="430" width="30" height="40" as="geometry" />
        </mxCell>
        <mxCell id="EG9JKjOF7Zh3uiVdJYcR-14" value="&lt;span style=&quot;color: rgb(95, 99, 104); font-family: arial, sans-serif; font-size: 14px; font-weight: 700; text-align: left; background-color: rgb(255, 255, 255);&quot;&gt;Asynchronous Server Gateway Interface&lt;/span&gt;" style="shape=ext;double=1;rounded=0;whiteSpace=wrap;html=1;" vertex="1" parent="1">
          <mxGeometry x="295" y="380" width="230" height="40" as="geometry" />
        </mxCell>
        <mxCell id="EG9JKjOF7Zh3uiVdJYcR-15" value="&lt;b&gt;&lt;i&gt;FastAPI&lt;/i&gt;&lt;/b&gt;" style="ellipse;shape=doubleEllipse;whiteSpace=wrap;html=1;" vertex="1" parent="1">
          <mxGeometry x="360" y="330" width="100" height="40" as="geometry" />
        </mxCell>
        <mxCell id="EG9JKjOF7Zh3uiVdJYcR-17" value="" style="shape=singleArrow;direction=south;whiteSpace=wrap;html=1;" vertex="1" parent="1">
          <mxGeometry x="380" y="210" width="60" height="100" as="geometry" />
        </mxCell>
      </root>
    </mxGraphModel>
  </diagram>
</mxfile>
